<svg width="14" height="14" viewBox="0 0 14 14" fill="none" xmlns="http://www.w3.org/2000/svg">
<circle cx="18" cy="18" r="18"
 fill="#F5F5F5"/>
<g clip-path="url(#clip0_6_2950)">
<path d="M13.6544 0.150827C13.2856 0.0428744 4.26249 -0.855475 1.09366 3.42567C-0.309786 5.32223 -0.330868 7.9221 1.02333 11.1525C0.67981 11.8655 0.379084 12.6166 0.134002 13.4091C0.0594904 13.6499 0.194268 13.9052 0.43481 13.9795C0.479654 13.9934 0.525072 14 0.569915 14C0.764384 14 0.944934 13.8744 1.0052 13.6787C3.42041 5.87028 11.2693 2.09267 13.6763 1.13835C13.9105 1.0454 14.2236 0.317405 13.6544 0.150827Z" fill="#84829A"/>
<path d="M2.47188 12.1297C3.77828 12.6777 5.08449 12.9586 6.29918 12.9586C7.39098 12.9586 8.40918 12.7341 9.28658 12.2789C11.0524 11.3629 12.1315 9.61072 12.407 7.21123C12.6878 4.76581 13.0373 3.23407 13.3288 2.29703C10.7335 3.49419 5.16873 6.59731 2.47188 12.1297Z" fill="#84829A"/>
</g>
<defs>
<clipPath id="clip0_6_2950">
<rect width="14" height="14" fill="white"/>
</clipPath>
</defs>
</svg>
